<svg xmlns="http://www.w3.org/2000/svg" width="23" height="16" viewBox="0 0 23 16">
    <g fill="none" fill-rule="evenodd">
        <g fill="#9C9696" fill-rule="nonzero">
            <g>
                <path d="M22.134 14.265H.387c-.213 0-.387.173-.387.387v.958c0 .213.174.387.387.387h21.747c.214 0 .387-.174.387-.387v-.958c0-.214-.173-.387-.387-.387zM21.419.554c0-.304-.247-.551-.551-.551H1.654c-.305 0-.552.247-.552.551v1.049H21.42V.554zm-9.74.702c-.11.11-.263.173-.419.173-.155 0-.308-.063-.417-.173-.11-.11-.173-.262-.173-.417 0-.156.063-.308.173-.418.11-.11.262-.173.417-.173.156 0 .308.063.419.173.11.11.172.262.172.418 0 .155-.063.307-.172.417zM12.935 10.062l-1.423.763c-.157.084-.346.084-.502 0l-1.424-.763-.369.113c-.452.153-.756.576-.756 1.055v2.169h5.6v-2.17c0-.478-.304-.9-.757-1.054l-.369-.113zM11.26 7.57c.626 0 1.135-.508 1.135-1.134 0-.625-.509-1.134-1.134-1.134-.626 0-1.135.509-1.135 1.134 0 .626.51 1.135 1.135 1.135z" transform="translate(-1871 -30) translate(1871 30)"/>
                <path d="M7.4 11.23c0-.938.597-1.768 1.487-2.064l.012-.004.587-.18c.136-.042.282-.028.407.04l1.368.733 1.367-.734c.125-.067.271-.08.407-.04l.587.18.013.005c.89.296 1.487 1.126 1.487 2.064v2.169h6.29V2.469H1.102v10.93H7.4v-2.17zm3.86-6.99c1.212 0 2.197.985 2.197 2.196 0 1.211-.985 2.196-2.196 2.196-1.211 0-2.196-.985-2.196-2.196 0-1.21.985-2.196 2.196-2.196z" transform="translate(-1871 -30) translate(1871 30)"/>
            </g>
        </g>
    </g>
</svg>
