<svg xmlns="http://www.w3.org/2000/svg" width="20" height="20" viewBox="0 0 20 20">
    <g fill="none" fill-rule="evenodd">
        <g>
            <g>
                <g fill="none">
                    <path d="M0 0H20V20H0z" transform="translate(-33 -508) translate(33 508)"/>
                </g>
                <g fill="#FFF">
                    <g>
                        <path d="M3.21 0c.805 0 1.459.688 1.459 1.536 0 .849-.654 1.536-1.46 1.536-.805 0-1.458-.687-1.458-1.536C1.75.688 2.404 0 3.21 0" transform="translate(-33 -508) translate(33 508) translate(2 2) translate(4.65 4.5)"/>
                        <path fill-rule="nonzero" d="M0 6.145V4.998c0-.32.175-.613.452-.745.505-.24 1.419-.566 2.66-.566h.021c1.242 0 2.155.326 2.66.566.278.132.453.424.453.745v1.147H0z" transform="translate(-33 -508) translate(33 508) translate(2 2) translate(4.65 4.5)"/>
                    </g>
                    <path stroke="#FFF" stroke-linecap="square" d="M7.9-.5c.345 0 .658.14.884.366.226.226.366.539.366.884s-.14.658-.366.884C8.558 1.86 8.245 2 7.9 2s-.658-.14-.884-.366C6.79 1.408 6.65 1.095 6.65.75s.14-.658.366-.884C7.242-.36 7.555-.5 7.9-.5h0zM7.9 14c.345 0 .658.14.884.366.226.226.366.539.366.884s-.14.658-.366.884c-.226.226-.539.366-.884.366s-.658-.14-.884-.366c-.226-.226-.366-.539-.366-.884s.14-.658.366-.884c.226-.226.539-.366.884-.366zM2.4 1.5c.345 0 .658.14.884.366.226.226.366.539.366.884s-.14.658-.366.884C3.058 3.86 2.745 4 2.4 4s-.658-.14-.884-.366c-.226-.226-.366-.539-.366-.884s.14-.658.366-.884c.226-.226.539-.366.884-.366zM12.9 1.5c.345 0 .658.14.884.366.226.226.366.539.366.884s-.14.658-.366.884c-.226.226-.539.366-.884.366s-.658-.14-.884-.366c-.226-.226-.366-.539-.366-.884s.14-.658.366-.884c.226-.226.539-.366.884-.366zM1.9 11.5c.345 0 .658.14.884.366.226.226.366.539.366.884s-.14.658-.366.884c-.226.226-.539.366-.884.366s-.658-.14-.884-.366C.79 13.408.65 13.095.65 12.75s.14-.658.366-.884c.226-.226.539-.366.884-.366zM.9 7c.345 0 .658.14.884.366.226.226.366.539.366.884s-.14.658-.366.884C1.558 9.36 1.245 9.5.9 9.5s-.658-.14-.884-.366C-.21 8.908-.35 8.595-.35 8.25s.14-.658.366-.884C.242 7.14.555 7 .9 7zM15.4 6.5c.345 0 .658.14.884.366.226.226.366.539.366.884s-.14.658-.366.884c-.226.226-.539.366-.884.366s-.658-.14-.884-.366c-.226-.226-.366-.539-.366-.884s.14-.658.366-.884c.226-.226.539-.366.884-.366zM13.4 11.5c.345 0 .658.14.884.366.226.226.366.539.366.884s-.14.658-.366.884c-.226.226-.539.366-.884.366s-.658-.14-.884-.366c-.226-.226-.366-.539-.366-.884s.14-.658.366-.884c.226-.226.539-.366.884-.366h0z" transform="translate(-33 -508) translate(33 508) translate(2 2)"/>
                </g>
            </g>
        </g>
    </g>
</svg>
