<svg xmlns="http://www.w3.org/2000/svg" width="20" height="20" viewBox="0 0 20 20">
    <g fill="none" fill-rule="evenodd">
        <g>
            <g>
                <path fill="none" d="M0 0H20V20H0z" transform="translate(-33 -720) translate(33 720)"/>
                <path fill="#FFF" fill-rule="nonzero" d="M14.375 11.75c-.525 0-.963.175-1.4.438l-2.1-1.75V8.075c1.05-.35 1.75-1.312 1.75-2.45C12.625 4.138 11.488 3 10 3S7.375 4.138 7.375 5.625c0 1.138.7 2.1 1.75 2.45v2.363l-2.1 1.662c-.438-.175-.875-.35-1.4-.35C4.138 11.75 3 12.887 3 14.375S4.138 17 5.625 17s2.625-1.137 2.625-2.625c0-.262-.088-.613-.175-.875L10 12.012l1.925 1.488c-.088.262-.175.525-.175.875 0 1.488 1.137 2.625 2.625 2.625S17 15.863 17 14.375s-1.137-2.625-2.625-2.625zm-8.75 3.5c-.525 0-.875-.35-.875-.875s.35-.875.875-.875.875.35.875.875-.35.875-.875.875zM10 6.5c-.525 0-.875-.35-.875-.875s.35-.875.875-.875.875.35.875.875-.35.875-.875.875zm4.375 8.75c-.525 0-.875-.35-.875-.875s.35-.875.875-.875.875.35.875.875-.35.875-.875.875z" transform="translate(-33 -720) translate(33 720)"/>
            </g>
        </g>
    </g>
</svg>
