<svg height="16" viewBox="0 0 16 16" width="16" xmlns="http://www.w3.org/2000/svg"><path d="m8.892306.3004898c.3996542-.40065307.99913551-.40065307 1.3987897 0l5.3953317 5.4088164c.3996542.40065307.3996542 1.10179594.0999136 1.502449-.1998271.20032654-.7993084.6009796-1.3987897 0l-.5994813-.6009796-3.6968014 6.7109389.9991355 1.0016326c.3996542.4006531.3996542 1.0016327 0 1.4022858-.1998271.2013281-.8992219.5008163-1.39878969 0l-3.99654203-4.0065307-3.69680137 3.7070425-1.39878971-1.4032874 3.59688782-3.7060408-2.39792521-2.40391843-1.49870326-1.502449c-.3996542-.40065307-.3996542-1.00163267 0-1.40228573.3996542-.40065307.99913551-.40065307 1.39878971 0l.99913551 1.00163266 6.79412143-3.70604087-.5994813-.6009796c-.3996542-.40065306-.3996542-1.00163266 0-1.40228573z" fill="#ee4136" fill-rule="evenodd"/></svg>