<svg xmlns="http://www.w3.org/2000/svg" width="20" height="20" viewBox="0 0 20 20">
    <g fill="none" fill-rule="evenodd">
        <g>
            <g>
                <g fill="none">
                    <path d="M0 0H20V20H0z" transform="translate(-33 -402) translate(33 402)"/>
                </g>
                <g fill="#FFF" transform="translate(-33 -402) translate(33 402) translate(1 4)">
                    <ellipse cx="10.519" cy="3.071" fill-rule="nonzero" rx="2.99" ry="3.071"/>
                    <path fill-rule="nonzero" d="M0 8.032c.91.634 1.536 1.652 1.536 2.798v2.048h2.658V10.83c0-1.487-2.36-2.525-4.194-2.798z" transform="matrix(-1 0 0 1 4.194 0)"/>
                    <path fill-rule="nonzero" d="M4.827 6.142c1.652 0 2.99-1.374 2.99-3.071S6.479 0 4.827 0c-.352 0-.969.077-1.283.184.931 1.187 1.283 1.797 1.283 2.887s-.544 2.103-1.283 2.887c.314.107.931.184 1.283.184z" transform="matrix(-1 0 0 1 11.361 0)"/>
                    <path d="M10.747 7.507c2.693 0 4.673.723 5.768 1.257.601.294.98.942.98 1.654v2.548H3.543v-2.548c0-.712.38-1.36.98-1.654 1.096-.534 3.075-1.257 5.768-1.257.077 0 .154 0 .23.002l.227-.002z"/>
                </g>
            </g>
        </g>
    </g>
</svg>
