<?xml version="1.0" encoding="UTF-8"?>
<svg width="86px" height="76px" viewBox="0 0 86 76" version="1.1" xmlns="http://www.w3.org/2000/svg" xmlns:xlink="http://www.w3.org/1999/xlink">
    <!-- Generator: Sketch 63.1 (92452) - https://sketch.com -->
    <title>Logo Symbol</title>
    <desc>Created with Sketch.</desc>
    <g id="Updated-Homepage" stroke="none" stroke-width="1" fill="none" fill-rule="evenodd">
        <g id="Logo-Symbol">
            <rect id="Rectangle" fill="#FFFFFF" x="0" y="0" width="86" height="76"></rect>
            <g id="Symbol" transform="translate(18.000000, 11.000000)" fill="#EE4136">
                <path d="M22.0347807,45.4876361 C21.8261368,45.3497123 21.6932925,45.2618006 21.4819136,45.1219233 C21.4936352,45.3024354 21.5006681,45.4133995 21.507701,45.5239729 C21.6592999,45.5134235 21.8105081,45.5032648 22.0347807,45.4876361 M29.5272039,46.0541783 C29.5990962,46.3186949 29.6557504,46.5289016 29.7065438,46.7160559 C29.9929407,46.6511966 30.270351,46.5879001 30.5825353,46.5167893 C30.4832927,46.2303925 31.0154517,45.9381348 30.5680787,45.5943023 C30.3375546,46.001822 29.9902056,46.1299777 29.5272039,46.0541783 M22.9889159,44.6194589 C23.0111869,45.012522 22.7755835,45.2930581 22.3582958,45.4567693 C22.8169997,45.6732275 23.006889,46.3745677 23.6632965,46.0756678 C23.6632965,45.7935689 23.7527711,45.4540343 23.6382905,45.209835 C23.5218563,44.9601657 23.2049834,44.8046596 22.9889159,44.6194589 M14.7705372,45.2071 C14.1903198,45.8846063 13.6991863,45.9287576 12.9822174,45.4313726 C12.6571394,45.2059278 12.2113292,45.1606045 12.0194863,44.7315952 C11.9936989,44.674941 11.7752871,44.7046356 11.5842256,44.6893976 C12.0202678,44.9839996 12.2261765,45.3075147 12.1984355,45.814277 C12.1859325,46.0436289 12.4383368,46.2870467 12.5817306,46.5433582 C13.3084676,46.6445544 13.6058045,46.8629662 13.6272941,47.331438 C13.6437043,47.6924621 13.3721547,48.0476255 13.0240243,48.1199085 C12.5426588,48.2203232 12.2515733,48.0054279 11.9874474,47.3353452 C11.4345803,47.4013766 11.0403451,47.2028915 10.9203944,46.6058732 C10.9090636,46.5496097 10.857098,46.4945183 10.8109931,46.4531022 C10.1897503,45.8967186 10.1448176,45.5634355 10.6218853,44.8671747 C10.3429121,44.7577734 10.1135601,44.6397763 9.79434289,44.8421687 C9.2930507,45.1594323 8.79332139,44.9421927 8.46550834,44.3908885 C8.22091838,44.6483721 7.95991824,44.922266 7.69462019,45.2008485 C7.95874609,45.4841196 8.00367875,45.7095643 7.76924748,45.9346183 C7.56685516,46.1288056 7.33789395,46.1315406 7.12885941,45.9463399 C6.90224252,45.7459012 6.94873805,45.4778681 7.2597502,45.1207511 C6.71821398,44.9742316 6.49941146,44.5803871 6.47674977,44.1169946 C6.13682444,44.1169946 5.80002485,44.197092 5.53472681,44.0943329 C5.26903804,43.9915739 5.07406937,43.7059585 4.83221445,43.4855931 C4.36725911,43.7969959 3.8987873,43.767692 3.62137697,43.3558744 C3.39124361,43.0151677 3.47329455,42.5310671 3.80188904,42.2884307 C4.2172231,41.9821072 4.63490147,42.0989321 5.06156637,42.6627393 C5.12212778,42.5967079 5.23348263,42.5283321 5.22723113,42.4736314 C5.18268919,42.0922899 5.44564293,41.7500203 5.27489882,41.3284347 C5.09790322,40.8920018 5.46400671,40.4489267 5.9320878,40.3856303 C6.36226917,40.3270225 6.77760323,40.7025032 6.82253589,41.1549556 C6.8373832,41.3034287 6.93232786,41.4491668 7.01086234,41.5847462 C7.09642975,41.7320472 7.20504957,41.865673 7.30194783,42.0028153 C7.99078503,41.8094095 8.69603241,41.6120965 9.41847143,41.4093135 C9.40245196,41.3706323 9.35595643,41.2561517 9.2930507,41.1010364 C9.18755663,41.1819152 9.11488294,41.2487281 9.03244128,41.2987401 C8.78159983,41.450339 8.53700987,41.4284587 8.36157714,41.193246 C8.17715788,40.9451396 8.22677917,40.7044568 8.45534965,40.4868265 C8.58077038,40.3672665 8.66321204,40.2035554 8.7831627,40.0769625 C8.97695921,39.8741794 9.18560304,39.685853 9.37549236,39.503778 C9.32157317,39.2666117 9.19263598,38.9845128 9.20748329,38.7102282 C9.24811804,37.9424658 10.0361978,37.4876691 10.7453524,37.786569 C10.8668659,37.8377532 10.9833001,37.9002682 11.1020786,37.9573131 C11.1184888,37.9764583 11.1341176,37.996385 11.1493556,38.0163117 C11.2267179,38.3421711 11.3896476,38.6750635 11.3622973,38.9919364 C11.3150204,39.5299562 11.025107,39.7245341 10.1967832,39.9656076 C10.2936815,40.3614057 10.3909705,40.7575946 10.4929481,41.1748822 C10.8449857,41.04321 11.1220053,41.0756397 11.3122853,41.3600829 C11.5076447,41.6511684 11.3994156,41.8934141 11.1970233,42.150507 C11.1020786,42.2712391 11.1247403,42.4841808 11.0938735,42.6553157 C11.1411505,42.675633 11.1888182,42.6955597 11.2360952,42.7158771 C11.3150204,42.5802977 11.3951177,42.4447182 11.4728707,42.3087481 C11.5435908,42.185281 11.5830534,41.9918752 11.6862032,41.9492868 C12.0187049,41.8117538 12.2023427,41.5335621 12.439509,41.2971772 C12.7727921,40.9642848 13.2799451,40.9318552 13.6921534,41.1627699 C14.0859979,41.3831353 14.3036283,41.8199589 14.241504,42.265769 C14.1743004,42.7455717 13.859381,43.095265 13.3885649,43.192554 C13.2354031,43.2242022 13.0755992,43.2226393 12.9165766,43.2363145 C12.8614853,43.7254944 12.9443177,43.7969959 13.3881742,43.6352384 C13.4628015,43.6082788 13.5511039,43.5539688 13.6147911,43.5731141 C14.1110039,43.7215872 14.26651,43.2464732 14.5677542,43.0491602 C14.6279249,43.0096976 14.6087796,42.8178547 14.594323,42.7002483 C14.5126628,42.0493108 14.9615987,41.3596922 15.6055032,41.1631607 C16.268553,40.9603776 16.9984157,41.2592775 17.2984877,41.8562958 C17.5950432,42.4462811 17.6309894,42.4556584 18.2030016,42.0876013 C18.1377516,41.9774186 18.0627336,41.8707524 18.008033,41.7547089 C17.832991,41.3827446 17.960756,40.930683 18.2991185,40.6989868 C18.6437324,40.4626019 19.1079063,40.4973759 19.3880517,40.79862 C19.5580144,40.9810857 19.7158647,41.1776173 19.8569142,41.3831353 C20.0561808,41.6730487 19.9866329,42.0918992 19.7209441,42.3650116 C19.6498333,42.438076 19.5923976,42.5248156 19.5283197,42.6049129 C19.5677823,42.632654 19.6072449,42.6607857 19.6463168,42.6889175 C19.7705654,42.4763665 19.9206014,42.2747556 20.0132017,42.0493108 C20.1901973,41.6171759 20.5488772,41.328044 20.9677277,41.3288254 C21.3873597,41.3296069 21.7921443,41.6398376 21.9136579,42.0543902 C22.0339992,42.4638635 21.8714602,42.8748996 21.4795693,43.1597336 C21.4104121,43.2097456 21.3478971,43.2679627 21.2955408,43.3562651 C21.6190559,43.1706737 21.97461,42.9948503 22.2817149,43.255069 C22.5223977,43.4590242 22.6575864,43.7864465 22.8529458,44.0790949 C22.8529458,43.9759451 22.856853,43.8470079 22.8521643,43.7180707 C22.8361449,43.2554597 22.9697707,42.8178547 23.3198547,42.5377093 C23.7855915,42.1645729 24.2904002,41.8117538 24.8311549,41.5667732 C25.4777945,41.2741248 26.1838233,41.8578586 26.166241,42.5806884 C26.1611617,42.7834714 26.1877305,42.9944596 26.2420404,43.1902097 C26.4334926,43.8825633 26.2658743,44.4709858 25.7665357,44.9742316 C25.4957676,45.2465626 25.5106149,45.3735462 25.8669504,45.4923247 C26.3655076,45.6587709 26.601111,46.0123714 26.6554209,46.5257759 C27.0191801,45.3899564 27.9092375,45.0152571 29.0294282,45.5380388 C28.9993428,45.1121553 29.0997576,44.756992 29.5217338,44.5733541 C29.8976053,44.4100337 30.1879093,44.562414 30.4356251,44.8046596 C30.6798243,44.627664 30.9165999,44.4561385 31.1408724,44.2935995 C30.8857331,44.1263719 30.6341102,43.8661532 30.8345489,43.5086455 C30.9435595,43.3144582 31.2143276,43.1292575 31.4343022,43.0987815 C31.7265599,43.0585374 31.9535675,43.2835915 32.0133475,43.5934314 C32.0856304,43.9681308 31.8746423,44.1896683 31.5159625,44.3533795 C31.8957411,44.6237569 32.1290002,44.9390669 32.0027981,45.4278561 C31.9844343,45.4977948 32.2044089,45.629467 32.3142009,45.7330075 C32.3536635,45.7755958 32.3931261,45.8181842 32.4325887,45.8607725 C32.6470933,46.3663626 32.6568613,46.8403045 32.1895616,47.2333676 C32.516984,47.4955399 32.7549317,47.7651358 32.6302924,48.1964893 C32.5404271,48.5071108 32.3431141,48.704033 32.0274133,48.7575615 C31.5878547,48.8317981 31.2912992,48.6212006 31.1080521,48.2351705 C30.2683974,48.7169267 29.8534541,48.6227635 29.3361424,47.828823 C28.9270599,48.194145 28.4714818,48.4266227 27.8967345,48.3465253 C27.8174185,48.3355852 27.7255996,48.5059386 27.6259663,48.5270374 C27.3981773,48.5750958 27.1156876,48.6708219 26.9425992,48.5805659 C26.7906096,48.5008593 26.6292427,48.1277228 26.6952742,48.0003485 C26.913686,47.5795444 26.6624538,47.2470427 26.6143954,46.8168613 C26.3373758,47.3025248 25.9622858,47.6354172 25.4668544,47.4670174 C25.0753542,47.3337823 24.7537926,46.9938569 24.4259796,46.7633329 C24.5283479,47.6201791 24.3689346,48.0464533 23.8250541,48.3043277 C23.3061796,48.5508713 22.8689653,48.4348278 22.337197,47.9100925 C22.3286012,47.9479922 22.3200054,47.9862826 22.3114096,48.0241824 C22.0265756,47.9679189 21.6929017,47.9866734 21.4690199,47.8385909 C21.1056514,47.5975175 21.2767862,47.2134409 21.4358088,46.8348344 C21.2947593,46.8680455 21.2107548,46.8883629 21.1263595,46.9075081 C20.6301467,47.0180815 20.2831884,46.8348344 20.0569622,46.3773027 C19.9885864,46.2378161 19.8533978,46.1315406 19.700236,45.9541543 C19.4677583,47.106384 18.8656607,47.2036729 18.0846139,46.7223074 C18.1033684,46.9078988 18.0900839,47.0356639 18.1318908,47.1415486 C18.2596559,47.4638916 18.2416828,47.7510699 18.0346019,48.0409833 C17.9517695,48.156636 17.9615374,48.3340223 17.8915988,48.4629595 C17.7790718,48.6692591 17.6755313,48.9466694 17.4934564,49.0295018 C17.3277916,49.1045198 16.9863034,49.0295018 16.8620548,48.8935316 C16.7276476,48.7462306 16.7464021,48.4524101 16.7155353,48.2199325 C16.6979529,48.0882602 16.7268661,47.9511179 16.7151446,47.8178828 C16.6690397,47.2786909 16.6975622,46.734029 16.7116281,46.2003071 C16.7253032,45.7064386 17.2500386,45.5392109 17.9896692,45.7466826 C18.0916468,45.3028261 18.1920615,44.8663932 18.2573116,44.5839035 C18.0791438,44.1588015 17.9576303,43.8688882 17.8400239,43.5871799 C17.4051539,43.6856411 16.9288677,43.7798043 16.4627402,43.9099137 C16.3638884,43.9376547 16.2564407,44.0865185 16.2302626,44.1974827 C16.13649,44.5948437 15.8540004,44.7976267 15.4793011,44.6983841 C14.9209639,44.5506924 14.9209639,44.5506924 14.82641,45.0992616 C14.8076555,45.1352077 14.7892917,45.1707631 14.7705372,45.2071" id="Fill-2"></path>
                <path d="M7.22657817,25.9301296 C7.24337908,25.9121566 7.26057071,25.8937928 7.27737161,25.875429 C7.20079073,25.8183841 7.11717692,25.7687628 7.04841041,25.703122 C6.88040134,25.5433181 6.63463923,25.4014871 6.57446854,25.2053463 C6.48069603,24.900195 6.32792499,24.8169719 6.05637544,24.8318192 C6.12748626,25.0990708 6.19429917,25.3506937 6.24509261,25.5425366 C6.59908382,25.6824139 6.912831,25.8062718 7.22657817,25.9301296 M8.64488733,27.4976934 C8.26120149,27.302334 7.87282703,27.1046303 7.47234028,26.9006751 C7.45475794,27.0034341 7.435222,27.1171333 7.41568606,27.2308324 C7.44694356,27.2163759 7.47820106,27.20231 7.50945857,27.1882441 C7.72396317,27.5316859 7.9388585,27.8755184 8.1490652,28.2111459 C8.31629284,27.9708538 8.49289772,27.7164959 8.64488733,27.4976934 M10.9606775,30.5081815 C10.6531818,30.4812219 10.2577744,30.5667893 10.0936725,30.4101111 C9.64200164,29.9771947 8.97270038,30.149111 8.59409389,29.714241 C8.39521803,30.0279882 8.22720896,30.2932862 8.06896785,30.5421741 C8.2948033,30.8121607 8.52923457,31.0926968 8.78476465,31.3986296 C8.85548475,31.3775308 8.96215097,31.3462733 9.06998935,31.3146251 C9.00200429,30.9453958 9.09929326,30.6636876 9.4579731,30.5777295 C9.89518741,30.4730168 10.0671037,30.7859826 10.1753328,31.1380202 C10.9849021,30.7500365 10.9849021,30.7500365 10.9606775,30.5081815 M9.6556768,19.1398281 C9.92527275,19.3508162 10.1350887,19.5196067 10.3503748,19.6805828 C10.4058568,19.721999 10.4769677,19.7536472 10.5453434,19.7661502 C10.7731325,19.8075664 11.0032659,19.8384332 11.2728618,19.879068 C11.8890253,19.2937713 12.6173251,19.2105482 13.1627685,19.9587746 C13.5445008,20.4823378 13.3467971,21.2168891 12.784162,21.5411856 C12.1500255,21.906117 11.4873664,21.6353489 11.1470504,20.9222871 C10.8172837,20.8664143 10.5285425,20.7773304 10.2405828,20.7808469 C10.0073237,20.7835819 9.72835049,20.8359383 9.5517456,20.9726898 C8.98911057,21.4063877 8.85821978,21.4438967 8.31590212,21.1348381 C8.1447673,21.4353009 7.97402319,21.7353729 7.84782103,21.9569104 C8.12718495,22.028412 8.47218963,22.0631859 8.75780505,22.2116591 C8.90354316,22.2878492 9.00200429,22.5621338 9.01997735,22.756321 C9.06530073,23.2560503 8.63707295,23.5643275 7.97793038,23.5502616 C7.73099611,24.4516498 7.88572075,24.6048116 8.92229766,24.4836887 C8.53040673,23.6252796 8.74452061,23.2165878 9.67677561,23.0415457 C9.64590883,22.4081906 9.91902125,22.011611 10.4113269,21.9744928 C10.8161116,21.9440167 11.2154261,22.2995708 11.249028,22.7199842 C11.2873184,23.1966611 10.9282478,23.5139247 10.2753568,23.5795655 C10.3460769,24.2242515 10.1976037,24.445789 9.55018273,24.6978026 C9.72366186,24.96271 9.89245238,25.2389481 10.0831231,25.4995576 C10.1327444,25.5675426 10.247225,25.6085681 10.3378718,25.622634 C10.6992866,25.6800696 11.0063916,25.8535488 11.0345234,26.2208244 C11.0540593,26.4763545 10.9579425,26.7967439 10.7989199,26.9964012 C10.5832432,27.2656064 10.2405828,27.2386468 9.91823981,27.1069746 C9.81313646,27.0639955 9.68302711,27.0811872 9.5517456,27.1292456 C10.1268836,27.2167666 10.6602148,27.4359598 10.8379918,27.9864826 C11.0470264,28.6354664 11.0970384,29.3360252 11.2025324,29.9369507 C11.5612123,29.9807112 11.8937139,30.0248624 12.2277785,30.0580735 C12.2996707,30.0651064 12.3789867,30.0404912 12.449316,30.0150944 C12.9115363,29.8478668 13.2514617,29.9185869 13.4757343,30.2495257 C13.6835966,30.5574121 13.6785173,30.8750665 13.4581519,31.1747478 C13.2178599,31.5013887 12.8783253,31.5599965 12.42431,31.37167 C12.3805495,31.353697 12.3344447,31.3431476 12.224262,31.3087643 C12.6767144,32.0444878 12.6974225,32.7118354 12.1164236,33.311198 C11.6561569,33.7855306 11.0540593,33.8363241 10.291767,33.4897565 C10.2589466,33.5331263 10.2218283,33.5815754 10.1851007,33.630806 C9.90300178,34.0101939 9.55448064,34.1223302 9.18681427,33.9527582 C8.80390987,33.7761534 8.65739033,33.4041891 8.76679158,32.9529089 C8.79336046,32.8431169 8.74373918,32.7145705 8.71599814,32.4832649 C8.49680491,32.7126169 8.38974797,32.8466334 8.26159221,32.9560347 C7.73412186,33.4065334 7.04919185,33.4135663 6.4592065,33.0154239 C6.32987859,32.9279029 6.13139345,32.8853146 5.97471522,32.9048505 C5.483191,32.9658026 5.16006657,32.7520795 4.93735687,32.3398711 C4.30165742,32.8571828 3.87499252,32.936108 3.38854765,32.6348638 C2.9693064,32.3754266 2.76652336,31.8768694 2.88295755,31.3919874 C2.98727947,30.9582896 3.40144137,30.6007819 3.84647005,30.5613193 C4.43254821,30.508963 4.80881039,30.7703538 5.1147432,31.459191 C5.21203217,31.3872988 5.3042418,31.318923 5.40778228,31.2423421 C5.17843036,30.7926248 5.21320433,30.4101111 5.5394545,29.9943863 C5.6746432,29.8216886 5.56172547,29.454413 5.56172547,29.2578814 C5.16553664,29.2063066 4.79513524,29.1582482 4.35049727,29.1008125 C4.01174409,29.4489429 3.6206346,29.5477948 3.25570326,29.309847 C2.9048378,29.0808858 2.83021052,28.7233782 3.02049056,28.1822327 C2.26952908,28.0212565 1.93741812,27.6160812 2.08862628,27.0468039 C2.20662335,26.6017752 2.71612064,26.3208484 3.15411638,26.4591629 C3.71675142,26.6361585 3.88436977,27.1159611 3.63587263,27.8040169 C3.86288024,27.9028687 4.08910641,28.0017206 4.32080264,28.1029168 C4.98736887,27.4820646 5.47420447,27.5488775 5.87820768,28.3588375 C6.04074669,28.2310725 6.19820636,28.1068239 6.4197439,27.9325634 C5.65627942,27.8083148 5.23664745,27.4027487 5.21359505,26.6685881 C4.27430711,26.4622886 3.91523656,26.072742 3.98009587,25.3475679 C4.03596866,24.7220272 4.50248687,24.3809297 5.24680614,24.345765 C5.20421779,23.9163651 5.08817432,23.4748529 5.13818632,23.0528766 C5.19366839,22.5844048 5.55859972,22.2870678 5.98448319,22.0663117 C6.12709554,21.9920751 6.25642346,21.7822591 6.27478724,21.6208923 C6.28611808,21.523994 6.09036798,21.3469984 5.95517928,21.29894 C5.07488988,20.9855835 4.78653942,20.0713016 5.38355771,19.3582398 C5.65745157,19.0312082 5.37105471,18.799512 5.30306964,18.5353861 C5.23625673,18.277121 5.10927313,18.0340939 4.98033594,17.7140952 C4.97486587,17.7129231 4.84749155,17.7250354 4.7818508,17.667209 C4.60563663,17.5113122 4.38956915,17.3507268 4.31220683,17.1452087 C4.21061995,16.875222 4.35792093,16.6036725 4.63572198,16.4981784 C4.93657543,16.3844793 4.91469518,16.1641139 4.93149609,16.0175943 C4.52553928,16.0175943 4.13403907,16.072295 3.76910773,15.9968862 C3.55460313,15.952735 3.34087996,15.7323696 3.20061192,15.5377917 C2.89975846,15.1216762 2.96539921,14.5223136 3.3021988,14.1370649 C3.64056126,13.7498626 4.21843433,13.625614 4.68260823,13.8409 C5.22687948,14.0929136 5.44607272,14.6016295 5.3292478,15.3416508 C6.67410183,14.8985758 7.48171753,15.5088785 7.23712758,16.837713 C7.81929856,16.5892159 8.22955327,16.8736592 8.51751301,17.2241339 C8.80351915,16.9459421 9.02779173,16.6661875 9.31262571,16.4790332 C9.437265,16.397373 9.70725168,16.4606694 9.87487003,16.5368596 C10.2913762,16.7275303 10.3785065,17.1526324 10.1464196,17.7121416 C10.2366756,17.8133378 10.3324017,17.9203948 10.4027311,17.9993199 C10.6297387,17.8961702 10.8376011,17.7637165 11.0630458,17.7168303 C11.1685399,17.69495 11.3377211,17.8133378 11.4271957,17.9133618 C11.6358395,18.1470116 11.6061449,18.4029324 11.3947661,18.6260329 C11.1302495,18.9046154 10.8606535,18.8534312 10.4238299,18.4330178 C10.3511562,18.8757022 9.59159892,18.6283772 9.6556768,19.1398281" id="Fill-4"></path>
                <path d="M10.950636,12.8511703 C10.9338351,12.8249921 10.9170342,12.7984233 10.9002333,12.7722451 C10.7165955,12.8664083 10.5329577,12.9601808 10.3375983,13.0602048 C10.4462181,13.2321211 10.5263154,13.358714 10.6099293,13.4911677 C10.7349593,13.2563457 10.8427977,13.0539533 10.950636,12.8511703 M8.58952248,8.35595079 C8.78878905,8.35595079 8.99039994,8.3289912 9.18067998,8.36415589 C9.35259624,8.39541339 9.5120095,8.49426524 9.72299764,8.49700027 C9.64211886,8.4309688 9.55928648,8.36728164 9.48114272,8.29851513 C9.18615005,8.03907787 9.11191348,7.6589085 9.28969052,7.32718826 C9.46590469,6.99781233 9.85818634,6.8305847 10.2028003,6.93803236 C10.5681224,7.05212224 10.7966928,7.41002064 10.7705147,7.79800438 C10.7634817,7.89959126 10.7712961,8.03946859 10.8330297,8.10237431 C11.2643832,8.54115149 11.3491692,8.79707229 11.1522469,9.17059944 C10.9584504,9.53826581 10.61032,9.64766706 10.0133017,9.50935262 C9.96250825,9.63125687 9.9093705,9.75863119 9.85584203,9.88756839 C10.0047059,9.94930196 10.1301266,9.99267174 10.2469515,10.0528424 C10.3403333,10.1012916 10.422775,10.1708395 10.5212361,10.2388246 C10.6876823,10.1505221 10.8513935,10.0352601 11.0330777,9.97274508 C11.5417935,9.79809379 12.0837205,10.0712062 12.3029137,10.5834385 C12.3521443,10.6987006 12.4072356,10.8323264 12.5006174,10.9053908 C13.3398813,11.5657055 13.294558,12.3100248 12.3556607,12.851561 C12.4705321,13.0500462 12.5861848,13.2493127 12.7182478,13.4774925 C12.9491626,13.3845014 13.2132885,13.3251122 13.4191973,13.1821091 C13.6383905,13.0301195 13.8028831,12.798814 14.0123084,12.5796208 C13.90994,12.0439453 14.0037125,11.7305889 14.3694253,11.5797714 C14.6964569,11.4449734 14.9973104,11.5059256 15.2239273,11.794276 C15.4599214,12.0947388 15.4067837,12.4030159 15.08405,12.8242107 C15.2133779,13.121157 15.3333285,13.396223 15.4665636,13.7009836 C15.6646581,13.6505809 15.8158662,13.5751722 15.9100294,13.2965897 C16.031543,12.9367377 16.2812123,12.6202555 16.5023591,12.2396954 C16.4449234,12.038866 16.3624818,11.7516877 16.3058276,11.5551561 C15.9084666,11.5203822 15.4864903,11.5793807 15.1661009,11.4262189 C14.8965049,11.296891 14.7800707,10.8803848 14.5315736,10.6654895 C14.294798,10.4607528 13.9275224,10.4005821 13.7067663,10.1852961 C13.5516509,10.0340879 13.4246673,9.68126888 13.4957781,9.5027104 C13.7145806,8.95609483 13.4359982,8.54310509 13.2554861,8.09260634 C12.6358061,8.21724563 12.29002,8.0918249 12.1138058,7.67883516 C11.9360288,7.26193822 12.0884091,6.93412517 12.6697986,6.54887646 C12.5643046,6.4476803 12.4345859,6.37188085 12.3771503,6.25857241 C12.2521203,6.01320102 12.082939,5.74946585 12.0809854,5.49159145 C12.0782504,5.1700299 12.3384691,4.94810164 12.6619843,4.8660507 C12.9937045,4.78126472 13.2578304,4.91371839 13.4696,5.16690415 C13.5285985,5.23801497 13.5727497,5.32358238 13.6403441,5.38414379 C14.3037846,5.97725489 14.2647127,6.46057402 13.4996853,6.90833773 C13.5453994,7.02477193 13.5915042,7.14394115 13.6469863,7.28733494 C13.7684998,7.23380647 13.8728218,7.18340375 13.9798787,7.1408154 C14.3788026,6.98218358 14.7437339,7.06345309 15.0496667,7.34437988 C15.3430965,7.61436656 15.4528885,7.95585477 15.3407522,8.35595079 C15.2239273,8.77362916 15.556429,9.34798576 15.9741073,9.48669093 C16.5449475,9.67579881 16.7598428,10.1157482 16.7742994,10.689714 C17.0517097,10.6975284 17.0224058,10.5615583 16.9848968,10.3638546 C16.9141767,9.99228102 17.1685346,9.66329581 17.5229165,9.61640956 C17.8718284,9.57030475 18.2156609,9.79379588 18.2449648,10.1419263 C18.261375,10.336895 18.1660397,10.5412409 18.1117297,10.7819237 C18.1672118,10.8405315 18.255905,10.9350854 18.3617898,11.0472217 C18.8845715,10.6201661 19.4225912,10.6158682 19.9313071,10.9792366 C20.1368252,10.7307395 20.3271052,10.5006061 20.4943328,10.2982138 C20.5126966,9.87233036 20.5314511,9.44918193 20.5529406,8.95687627 C20.3251516,8.82950195 20.0950182,8.59702428 20.1458117,8.19184891 C20.1536261,8.12777103 20.0766545,8.02423055 20.0114044,7.98437724 C19.7238354,7.81011666 19.5511377,7.55263299 19.7347755,7.26193822 C19.8441768,7.08884981 20.1399509,6.92162217 20.3349196,6.93920451 C20.7041488,6.97241561 20.8311324,7.28577207 20.7959677,7.67297437 C21.2238048,7.75229029 21.4496402,8.02813774 21.462534,8.46769636 C21.7184548,8.5016889 21.9458531,8.53177424 22.1732514,8.56185959 C22.1806751,8.54388652 22.187708,8.52552274 22.1951317,8.50754968 C22.0994056,8.45050474 21.9986001,8.40049273 21.9087348,8.3352427 C21.5617765,8.08322909 21.4723019,7.62686956 21.6954023,7.27522266 C21.9208471,6.92045001 22.385021,6.78252629 22.7374493,7.01891115 C22.9496096,7.16113278 23.1180094,7.15878847 23.3516592,7.10174353 C24.3812032,6.85129279 25.297048,7.81949391 25.0380015,8.87990467 C24.9887709,9.082297 25.0755105,9.24952463 25.0856692,9.41518939 C25.1157545,9.91179295 25.422078,10.2919623 25.5189763,10.7428518 C25.6115766,11.1730332 25.3787082,11.5739106 24.9973667,11.7677071 C24.6070387,11.9654108 24.229995,11.9357162 23.8818646,11.6602595 C23.8099724,11.6032145 23.7431594,11.5403088 23.6740022,11.4797474 C23.6536848,11.506707 23.6329767,11.5328852 23.6126594,11.5598447 C23.752146,11.6641667 23.8814739,11.7884152 24.0338542,11.8696847 C24.3792496,12.0548854 24.7187842,12.2244574 24.7379294,12.6956642 C24.7418366,12.7894367 24.8516286,12.88907 24.9309445,12.9679952 C25.2864986,13.3227679 25.3032995,13.8053055 24.9633742,14.131165 C24.6339983,14.4468658 24.1709965,14.4199062 23.8263825,14.0819344 C23.720107,13.9780032 23.5767132,13.9104089 23.4466039,13.8318744 C23.4024527,13.8053055 23.3364212,13.8092127 23.2989122,13.7771738 C23.1312938,13.6326078 22.9089749,13.5095314 22.8187188,13.3243307 C22.5881947,12.8492167 22.2681961,12.3455802 22.2674146,11.8528838 C22.2670239,11.4250468 22.619843,10.9725944 22.8898296,10.5814849 C22.9875093,10.4400447 23.2981308,10.4455148 23.5306084,10.452157 C23.6931474,10.2814129 23.8556865,10.1106688 23.9916566,9.96766574 C23.6693136,9.93171961 23.307508,9.89108486 22.8894389,9.84419861 C22.7855077,10.3345507 22.4803564,10.7377724 21.9243635,10.8893713 C22.0232154,11.9239946 21.1937194,12.4995234 20.3146022,11.9759602 C19.9668625,12.8218664 19.5687201,13.0398875 18.6966357,12.8437466 C18.4872105,13.2579085 17.9827925,13.4063817 17.8003269,13.8959523 C17.683502,14.2093088 17.3045048,14.2972205 16.9450435,14.2870618 C16.8383773,14.283936 16.6578652,14.3476232 16.6324685,14.4222505 C16.5027498,14.7989034 16.2608949,15.0126266 15.8658782,14.9794155 C15.4673451,14.9462044 15.2778465,14.6621518 15.1930605,14.2675259 C14.704662,14.731309 14.1951647,14.8071085 13.6497213,14.3991981 C13.6040072,14.3648148 13.5254728,14.3542654 13.4656928,14.3612984 C12.9511162,14.4195155 12.9515069,14.4214691 12.6127537,14.1432773 C12.5092132,14.2585393 12.4048913,14.3745828 12.3724617,14.4105289 C12.5080411,14.8184393 12.6967582,15.1618811 12.7131684,15.513528 C12.7244993,15.74835 12.5392986,16.0433427 12.3564422,16.2250269 C11.9571276,16.6219972 11.3233817,16.5696409 10.9275836,16.1640748 C10.4763034,15.7014638 10.5161568,15.1583647 11.0463621,14.5425919 C10.9080477,14.3245708 10.7693425,14.1065497 10.6439218,13.9096275 C10.5915655,14.0334853 10.5356927,14.203448 10.450516,14.3570005 C10.3606507,14.5191487 10.2434351,14.6656683 10.1355967,14.8227372 C10.4485624,15.1587554 10.4923229,15.4474966 10.2063168,15.7151389 C9.94140944,15.9632453 9.65423114,15.9116705 9.29164412,15.5518185 C8.80129205,16.1316451 8.3132843,16.2668338 7.81394571,15.9620732 C7.26576727,15.6280086 7.19661004,15.1380473 7.60022254,14.2593208 C7.49003984,14.3249615 7.41775687,14.3734106 7.34117599,14.4136547 C7.04032253,14.5691608 6.75119064,14.5464991 6.48432972,14.338246 C6.21434304,14.1276485 6.15847026,13.8451589 6.21004514,13.5181272 C6.25419636,13.2375912 6.27099727,12.9523665 6.29834758,12.6827705 C5.57708072,12.5018677 5.57942503,12.501477 5.48877828,11.8481952 C5.47861959,11.7743494 5.42665399,11.7055829 5.39031715,11.6368163 C5.14455504,11.174596 5.2062886,10.6846347 5.55285616,10.361901 C5.89200005,10.0458095 6.41126531,9.99423462 6.80471911,10.2384339 C7.22708611,10.4998247 7.37868499,10.9686872 7.20911304,11.4859989 C7.19661004,11.5238986 7.1852792,11.5621891 7.16730614,11.6200154 C7.39470446,11.6743253 7.62053991,11.7286353 7.87177209,11.7891967 C7.99523922,11.3949614 8.22341898,11.1175511 8.69853301,11.2253895 C8.73447914,10.9483699 8.76886239,10.6830718 8.80402708,10.4107408 C7.92998918,9.98329449 7.76823161,9.62695897 8.05540991,8.81738967 C7.82254152,8.67008869 7.61663273,8.48801374 7.37634068,8.40518136 C7.20247083,8.34540139 6.91959043,8.34344779 6.79807689,8.44737899 C6.57536719,8.63804975 6.35265749,8.79902588 6.09634597,8.65914856 C5.92794618,8.56732965 5.77361227,8.34227564 5.73141464,8.15082344 C5.6661646,7.85426789 5.88418568,7.67688156 6.14635798,7.54989796 C6.24403767,7.50262099 6.32921436,7.38774967 6.37610062,7.28381847 C6.51246147,6.97905783 6.73556189,6.73251428 7.05946775,6.77080472 C7.31695143,6.80128079 7.55880635,6.99703089 7.79675408,7.13847109 C7.88857299,7.19317172 7.93350565,7.33617479 8.02688744,7.37759098 C8.57584732,7.62179021 8.67157342,7.77182622 8.58952248,8.35595079" id="Fill-6"></path>
                <path d="M33.7491156,9.87955866 C33.5408625,9.98544344 33.3740256,10.0702294 33.206798,10.1550154 C33.2208638,10.17924 33.2349297,10.2034645 33.2486049,10.2276891 C33.4799104,10.2534765 33.7108252,10.2784825 33.9741696,10.3077864 C33.9014959,10.169472 33.8370273,10.0467863 33.7491156,9.87955866 M33.181792,12.4747128 C32.9895583,12.1973024 32.6742483,12.2254342 32.3573753,12.2934192 C32.2823573,12.3098294 32.1581088,12.4082906 32.1659231,12.4446274 C32.1901477,12.553638 32.2686822,12.6509269 32.3257271,12.7525138 L32.3554218,12.6247488 C32.6320506,12.574346 32.9090703,12.524334 33.181792,12.4747128 M36.7381143,10.8551834 C36.1301558,11.2072211 35.6073741,10.8864409 35.0334082,10.6145007 C35.1529682,10.9989679 35.0927975,11.3103708 34.7372434,11.5041673 C34.899001,11.6792093 35.0486463,11.8409669 35.1982916,12.0031152 C35.6956766,11.1150114 36.1586783,10.9888093 37.013571,11.5002601 C37.0585036,11.5272197 37.138601,11.4951808 37.2276849,11.4889293 C37.0565501,11.2673917 36.9143284,11.0829725 36.7381143,10.8551834 M31.4524707,9.61386989 C31.8865592,9.55408992 32.1065339,9.31965865 32.149513,8.87033206 C32.1846776,8.50461929 32.4249697,8.25612215 32.76216,8.09475529 C32.9086795,8.02442591 33.0145643,7.86423121 33.1630375,7.80640484 C33.6908985,7.60049604 34.2183689,7.36919053 34.7685009,7.26096143 C34.9513573,7.2250153 35.2014173,7.52977594 35.4514773,7.69973861 C35.9355779,7.44655284 36.1180436,7.46765166 36.5681516,7.8888465 C36.8654886,7.70247364 37.216354,7.55712626 37.4488317,7.93729563 C37.5461207,8.09631817 37.5355713,8.42452194 37.4316401,8.58237232 C37.2124468,8.91604616 36.8834616,8.80508202 36.5876875,8.61753701 C36.4482009,8.72420324 36.3137937,8.82735299 36.2356499,8.88674225 C36.541192,9.08796242 36.8713494,9.30520206 37.2827762,9.57597017 C37.5519815,9.51189229 37.9544218,9.40874253 38.3603786,9.32044009 C38.7569582,9.23409124 39.087897,9.63457798 38.9804493,10.0585079 C38.943331,10.2054181 38.912855,10.354282 38.865578,10.5621444 C39.3848432,10.5215096 39.7638404,10.657089 39.9423989,11.123998 C40.22567,11.079456 40.4323603,11.026709 40.5562181,10.7055381 C40.6437391,10.4789213 40.8390985,10.3218523 40.7894772,10.0174824 C40.7265715,9.63106151 40.9215402,9.28214965 41.2716242,9.13563011 C41.6056888,8.99575279 41.8014389,8.79687693 41.909668,8.4694546 C41.9413162,8.37411922 42.0225857,8.29519402 42.1206561,8.15062808 C41.2438832,8.21236164 40.6058394,7.94628216 40.4683064,7.03786101 C40.3831297,6.47288166 40.7234458,5.94150412 41.2384131,5.73168814 C41.7631484,5.51796497 42.3503987,5.6746432 42.7043899,6.12240692 C43.1017509,6.62448054 43.0583812,7.16210958 42.562559,7.89587944 C43.4194053,7.78218027 43.979696,8.0845966 44.1938099,8.77616884 C44.4192546,9.50446863 43.88944,10.3128658 43.129492,10.3648314 C42.8895906,10.3812416 42.6883705,10.3976518 42.5801414,10.6430231 C42.5645126,10.6774064 42.5336458,10.7164783 42.5004347,10.7297627 C42.2136472,10.8438526 41.8385571,10.8774544 41.6592172,11.0829725 C41.4529177,11.3193573 41.3157754,11.5248754 40.9695986,11.592079 C40.7707227,11.6307602 40.610528,11.8941047 40.4483797,12.0707095 C40.4179037,12.1043114 40.4616642,12.2058982 40.4651806,12.2309042 C40.8043245,12.0472664 41.114946,11.789392 41.4642486,11.7167183 C41.8033925,11.6459982 42.1819989,11.7655582 42.5094213,11.7979878 C42.5516189,11.5459742 42.5504467,11.201751 42.6731324,10.9094933 C42.8134005,10.5762102 43.1326177,10.4121083 43.5131778,10.4078104 C44.1609895,10.3999961 44.521623,10.8063436 44.5817937,11.6452168 C44.8728791,11.7042153 45.1241113,11.7483666 45.3733899,11.4533739 C45.659396,11.1150114 46.1724098,11.111495 46.5369504,11.3638993 C46.9034446,11.6174758 47.0339447,12.0640673 46.8725778,12.4891694 C46.8276452,12.6083386 46.7670838,12.7357129 46.7702095,12.8576172 C46.7881826,13.531607 46.5056929,13.953974 45.9657196,14.028992 C45.4464543,14.101275 45.0346367,13.7648662 44.886945,13.1490934 C44.2653115,12.9248208 44.2168623,12.8783253 44.0808922,12.3961783 L43.0263422,12.3961783 C43.0548647,12.7802548 43.2111522,12.9994481 43.7159609,12.9736606 C44.2438219,12.9463103 44.6689239,13.4284573 44.7556635,13.998516 C44.8353701,14.5224699 44.5095107,15.0667411 43.9968877,15.2644448 C43.4725431,15.4672279 42.8704454,15.2773385 42.5586518,14.805741 C42.4867596,14.6971212 42.4308868,14.5771705 42.4211188,14.5595881 C41.8510601,14.5021525 41.3544566,14.4521405 40.8297213,14.3990027 C40.8097946,14.5271585 40.7761928,14.7420538 40.7375116,14.9917231 C41.1465942,14.9995375 41.4763608,15.1116738 41.5560675,15.5703776 C41.5631004,15.6094495 41.7080571,15.6336741 41.7916709,15.6481306 C42.124954,15.7055663 42.3140619,15.8993628 42.332035,16.235381 C42.3507895,16.5772599 42.1605094,16.7933274 41.8459808,16.8726433 C41.5142606,16.9566478 41.2935044,16.7773079 41.1309654,16.4995069 C41.0789998,16.4112044 41.0028097,16.2834394 40.9246659,16.27289 C40.5554367,16.2232687 40.3667195,16.000559 40.2690398,15.6696202 C38.853075,16.2463211 37.9977916,15.7399496 37.8922975,14.2419338 C37.6918588,14.2981973 37.4988437,14.3806389 37.2987957,14.4033006 C36.8244631,14.4568291 36.3513027,14.108308 36.2454179,13.6183466 C36.1981409,13.3995441 36.1071034,13.2995201 35.8976782,13.2022311 C35.6472274,13.0861876 35.4495237,12.8576172 35.1771927,12.6356889 C35.1771927,12.8599615 35.2033709,13.0936113 35.1689877,13.3182746 C35.1435909,13.4839394 35.0795131,13.6910203 34.958781,13.7808856 C34.8552405,13.8582479 34.6243257,13.8449635 34.4899184,13.7836207 C34.214071,13.6574185 33.9624481,13.4772971 33.706918,13.3100695 C33.5857952,13.2311443 33.4783475,13.131511 33.4056738,13.0736846 C33.144283,13.2119991 32.8989116,13.3417177 32.5585955,13.5218391 C32.3640176,14.1215924 31.9822853,14.4607363 31.4516892,14.4052542 C30.8437308,14.3415671 30.562804,13.9785893 30.4748923,13.151047 C30.4260524,13.3659423 30.4346483,13.6351475 30.3080554,13.8023752 C30.172476,13.9821058 29.9235881,14.1294068 29.6997062,14.1778559 C29.3437614,14.2552182 29.0038361,13.9731193 28.9034214,13.6077972 C28.7854243,13.1795694 28.9667178,12.878716 29.4437854,12.631391 C29.1257404,12.5571544 28.7565111,12.4661169 28.3841561,12.3887546 C28.3325812,12.3782052 28.2657683,12.4317337 28.2083327,12.4598654 C27.7203249,12.6997668 27.3010837,12.606385 27.0717318,12.2066797 C26.8458963,11.8120537 26.9888994,11.379528 27.4374445,11.0982105 C27.4804236,11.0716416 27.5218398,11.0427284 27.66328,10.9481745 C27.4733907,10.9165263 27.375711,10.8774544 27.2846735,10.8887853 C26.5997435,10.9735712 25.9921758,10.5691773 25.8859003,9.947153 C25.7694661,9.2645673 26.1832373,8.63824511 26.8333933,8.51282438 C27.5038667,8.38349647 28.095415,8.81563143 28.2485767,9.53025607 C28.2688941,9.62402858 28.3501636,9.74632355 28.4326053,9.77758106 C28.8502836,9.93621288 29.0167298,10.2511322 29.0425173,10.691863 C29.4515998,10.7672717 29.7762871,10.9575518 29.9302303,11.3783559 C29.9552363,11.4467317 30.0857364,11.5131539 30.1701316,11.517061 C30.5315465,11.5342527 30.9054644,11.7159369 31.2532041,11.4502481 C31.2961832,11.4174278 31.3790155,11.436573 31.4618479,11.4307122 C31.3180634,11.23926 31.1856097,11.0634365 31.0535468,10.8876131 C30.2588248,11.0888333 29.5539681,10.9243407 29.3890848,10.4988479 C29.2382674,10.1081291 29.5442002,9.34427393 29.9450776,9.11218698 C30.4745016,8.80508202 30.9664165,8.96996535 31.4524707,9.61386989" id="Fill-8"></path>
                <path d="M42.1014718,23.235733 C42.3866965,23.2626926 42.6332401,23.2771492 42.8770486,23.3115324 C43.1732134,23.35373 43.2509664,23.2033033 43.2341655,22.9458196 C43.2115038,22.5965171 43.1927493,22.2472145 43.1696969,21.8498535 C42.7524093,21.7377172 42.5465005,21.3794281 42.50821,20.9347901 C42.2307997,20.9680012 41.9787861,20.9980865 41.7252096,21.0289533 C41.6478473,21.7283399 41.5278966,21.8424298 40.7683393,21.9623805 C40.7171552,21.9701949 40.6780833,22.0557623 40.5921252,22.1518791 C41.5634521,22.0979599 41.870557,22.3370798 42.1014718,23.235733 M43.6354337,28.3209378 C43.1489888,28.6714126 42.8411024,28.5823287 42.6543389,28.0208658 C42.6543389,28.1959078 42.6570739,28.3350037 42.6539482,28.4737089 C42.6422266,28.9632795 42.2855003,29.3012512 41.7990555,29.2449877 C41.4989835,29.2106045 41.195395,29.1449637 40.9129053,29.0402511 C40.3045562,28.8144156 40.0095635,28.1474587 40.1830426,27.5039449 C40.2150816,27.3859478 40.2127372,27.217548 40.1498315,27.1229941 C39.9521278,26.8240942 39.8966458,26.5333994 40.128342,26.2434861 C40.3537867,25.9609964 40.6487794,25.8988721 40.982844,26.0496896 C41.0289488,26.0703977 41.0793515,26.0829007 41.1059204,26.0918872 C41.3169085,25.8984814 41.5099236,25.7214858 41.6294835,25.6116938 C41.4618652,25.1291562 41.3071405,24.6829553 41.1371779,24.1933847 C40.3264364,24.0656196 40.1537387,23.930431 39.9345455,23.1767344 C39.3285407,23.285745 38.7850508,23.198224 38.4931839,22.5742461 C38.2427332,22.0397428 38.4412183,21.5974491 38.7967724,21.2700268 C38.7104236,20.8949368 38.520925,20.5350848 38.5873471,20.2311056 C38.6576765,19.9071997 39.0061977,19.654014 39.1663924,19.3367503 C39.321117,19.0312082 39.3136933,18.6221257 39.5145228,18.3662049 C39.9095395,17.8625684 40.69801,17.9055474 41.13288,18.3794893 C41.5544655,18.8393653 41.5095329,19.5176531 41.0394982,19.9431459 C40.9429906,20.0306669 40.8781313,20.1537433 40.7988154,20.2604095 C40.9289248,20.326441 41.0586434,20.3928632 41.1961764,20.4628018 C41.370437,19.5985319 41.6290928,19.3766036 42.3655977,19.4738926 C42.3085528,19.062075 42.4300663,18.7455928 42.8879887,18.6791706 C42.965351,18.6678398 43.0462298,18.652211 43.1220292,18.6627604 C43.6639562,18.7405135 44.4086662,19.6086906 44.4012425,20.1006055 C44.6641962,20.1978945 44.9783341,20.226417 45.1381381,20.3983332 C45.299505,20.5710309 45.274499,20.9031419 45.3928868,21.133666 C45.4694676,21.2825298 45.6425561,21.4493667 45.7972807,21.4790614 C46.5052631,21.6158129 46.6295117,21.6724672 47.0620374,22.2542474 C47.701644,21.911587 48.0704825,21.9190107 48.358833,22.2804256 C48.6065487,22.5914377 48.5909199,23.0016924 48.3197611,23.298248 C48.0169541,23.6295775 47.6223281,23.6272332 47.1057979,23.28848 C46.9506825,23.4619591 46.8151031,23.6616164 46.6342003,23.8042288 C46.2509052,24.1058637 45.8156445,24.1539221 45.3596757,23.9698935 C44.9103491,23.7889908 44.6962352,23.8429099 44.3895209,24.205497 C44.3305224,24.2754356 44.2598023,24.3684267 44.1816586,24.383274 C43.7682781,24.461027 43.7077167,24.7743835 43.6815385,24.9799016 C43.9050297,25.2940395 44.1390702,25.5081534 44.2230748,25.7699349 C44.3250524,26.0911058 44.1371166,26.3907871 43.8175087,26.4958904 C43.5807331,26.5736435 43.525251,26.6916405 43.4924306,26.9092709 C43.4619546,27.1120539 43.3607584,27.3046783 43.290429,27.5012098 L43.3685728,27.5809165 C43.4338228,27.5094149 43.5131387,27.4457278 43.5623693,27.3644583 C43.9190955,26.7772079 44.6829507,26.7373546 45.0428027,27.2906124 C45.2604331,27.624677 45.2323013,28.0236008 44.970129,28.3209378 C44.7040496,28.6225727 44.2754311,28.7034515 43.9210491,28.5127807 C43.8280581,28.4627687 43.7452257,28.3955651 43.6354337,28.3209378" id="Fill-10"></path>
                <path d="M32.4325106,45.8608116 C32.393048,45.8182232 32.3535854,45.7756349 32.3141228,45.7330465 C32.0691421,45.03913 32.3129506,44.5948827 33.0096022,44.5081432 C33.3635934,44.4639919 33.2944362,44.3448227 33.1291621,44.1361789 C32.5719972,43.434448 32.855659,42.5408741 33.6968765,42.3212902 C34.2466178,42.1782871 34.8241002,42.5197753 35.0014865,43.0859268 C35.0393862,43.2066589 35.077286,43.3500527 35.1640255,43.4297594 C35.6723506,43.8954961 35.6430467,44.1940053 35.0143802,44.5433079 C35.032744,44.6749801 35.05228,44.8152481 35.0671273,44.9219144 C35.3859538,45.0078725 35.6750857,45.0860162 35.984535,45.1692393 C36.1279287,44.8027451 36.3682208,44.4858722 36.8370833,44.5120504 C37.2403051,44.534712 37.4778621,44.7933679 37.5857005,45.1731465 C37.8982755,45.0887513 38.2038176,45.0063096 38.5671861,44.9082392 C37.999081,44.6902181 37.5825747,44.3905368 37.8064566,43.7321757 C37.9209372,43.3949854 38.2886036,43.1879044 38.6261846,43.2281485 C39.0446444,43.2785512 39.2736056,43.5676831 39.3427628,44.1322717 C39.5697704,44.2909035 39.7432496,44.256911 39.9589263,44.0619423 C40.3074475,43.7466323 40.641512,43.809538 41.1240497,44.204164 L41.1123282,44.1920517 C41.2791651,44.5675324 41.1170168,45.0856255 41.6015081,45.3235733 L41.5901772,45.3067723 C41.8343764,46.1612743 41.6202626,46.621541 40.8650032,46.866131 C41.3873942,47.0806356 41.5811907,47.4248588 41.4018508,47.8226105 C41.2127429,48.2434147 40.8095211,48.3184327 40.291428,48.0289101 C39.8100625,48.4383833 39.3888676,48.4770645 39.0708226,48.1410463 C38.8098224,47.8651989 38.7969287,47.4549442 39.0403465,47.1630772 C39.3372928,46.8075232 39.7229322,46.8040067 40.2132843,47.1642494 C40.3215134,47.0853242 40.4344311,47.0024918 40.5817321,46.8946534 C39.9632242,46.7426638 39.6651058,46.356243 39.6408812,45.7666483 C39.3556565,45.6978818 39.318929,45.8389313 39.3087703,46.0643761 C39.2857179,46.5793434 38.9325081,47.0153855 38.4632549,46.9970218 C37.9963459,46.9782673 37.6067993,47.0630532 37.2719533,47.4053229 C37.3922947,47.9980433 37.2528081,48.3578953 36.8323947,48.4962097 C36.477622,48.6126439 36.0935455,48.4501049 35.9255364,48.1121332 C35.7297863,47.7167257 35.8723987,47.3978992 36.3455591,47.0653976 C36.3674394,46.6832746 36.3858031,46.3566337 36.4045576,46.0296021 C36.2080261,46.7633719 35.7477594,47.1435413 34.967494,47.0048361 C34.6314758,47.7229773 34.3696943,47.9124759 33.8945802,47.7987767 C33.5675486,47.7206329 33.3010784,47.3764097 33.3042042,47.0364844 C33.3081113,46.6047401 33.6132627,46.3296741 34.2395849,46.2108956 C34.2466178,46.0764883 34.2536508,45.9354389 34.2606837,45.7939987 C33.9469365,45.7256229 33.6937508,45.6951468 33.4147776,45.9358296 C33.1158777,46.1944854 32.7435227,46.1167324 32.4325106,45.8608116" id="Fill-12"></path>
                <path d="M42.4917999,39.6207592 C41.7318518,39.4922128 41.4032574,39.179247 41.4138068,38.6099698 C41.4220119,38.1360279 41.7662351,37.7589843 42.2448656,37.6984229 C42.7684288,37.6323914 43.1341415,37.9418407 43.3380967,38.6310686 C43.9112812,38.6115326 44.332476,38.8322887 44.5403384,39.4003938 C44.5688609,39.479319 44.6708385,39.5566814 44.7556244,39.586376 C45.7675861,39.9380229 45.9555218,40.5995098 45.2787969,41.4735477 C45.3682715,41.6868801 45.4596997,41.9041198 45.5186982,42.0439971 C45.8832388,42.0439971 46.2301971,41.9986737 46.5564473,42.0619701 C46.7338336,42.0963534 46.9127828,42.2905406 47.0257005,42.4569868 C47.282012,42.833249 47.2171527,43.29586 46.9084849,43.6256267 C46.5642617,43.993293 46.1137629,44.0159547 45.5351084,43.715492 C45.3084915,43.8924876 45.0955498,44.0593245 44.8865152,44.2222542 C44.9427787,44.5098233 45.0052937,44.8317755 45.0728881,45.1791245 C45.5546443,45.0580017 46.0090503,45.1869389 46.2802091,45.7026877 C46.54707,46.2098407 46.2946657,46.8693739 45.7429708,47.031913 C45.4503224,47.1178711 45.1776007,47.1909355 44.9462952,47.4034865 C44.8583835,47.4843653 44.7052217,47.4941333 44.5817546,47.5367216 C44.5274447,48.2786966 44.3242709,48.5744707 43.8460311,48.6072911 C43.444763,48.6354228 43.0911625,48.3853628 43.0149723,48.0204315 C42.9149483,47.5410195 43.1560218,47.2178951 43.7831254,46.9983111 C43.800317,46.7810715 43.8182901,46.5599247 43.8366539,46.3243213 C43.5049336,46.1238825 43.3545069,45.8593659 43.5893289,45.4745079 C43.6217586,45.4209794 43.6162885,45.3264255 43.5951897,45.2611755 C43.3713078,44.5653053 43.465471,44.3418142 44.1082034,44.018299 C44.0382648,43.7006447 43.969889,43.3911954 43.8940895,43.0497072 C43.7694503,43.1258974 43.6537975,43.2052133 43.5307211,43.2692912 C43.1161685,43.4853586 42.602764,43.3884604 42.2980033,43.0422835 C42.0018385,42.7058747 41.9604223,42.201066 42.1975886,41.8224595 C42.4492115,41.4200192 42.9165112,41.2527916 43.3709171,41.3864174 C43.5264232,41.4321315 43.7940655,41.6474175 43.8218066,41.3825102 C43.8444683,41.1691777 43.6405131,40.8022928 43.4451537,40.7194604 C42.7817132,40.4369708 42.6105784,40.3029542 42.4917999,39.6207592" id="Fill-14"></path>
                <path d="M41.7664695,34.6873486 C41.9993379,34.5572393 42.2052467,34.4427587 42.4369429,34.3134308 C42.4088112,34.1372166 42.3759908,33.9344335 42.3595806,33.8336281 C41.9598753,33.6773406 41.6164335,33.5386354 41.2694752,33.4096982 C41.1905501,33.380785 41.0983404,33.3717985 41.0143359,33.37805 C40.5130437,33.4151683 40.168039,33.162764 40.1418609,32.7321919 C40.1149013,32.2875539 40.3946559,32.020693 40.9197819,31.988654 C40.9701847,31.9855283 41.0198059,31.9730253 41.0963868,31.9605223 C41.0553614,31.8460417 41.0178524,31.7507063 40.9858134,31.653808 C40.8510154,31.2455069 40.9580724,30.8379872 41.3054214,30.591053 C41.4804634,30.4664137 41.6195593,30.3566217 41.5765802,30.1210183 C41.5718916,30.096403 41.5730637,30.0639734 41.5859575,30.0432653 C41.6746506,29.8994807 41.7359935,29.7142801 41.8641492,29.6232426 C42.2724503,29.3325478 42.6787979,29.0051255 43.1390646,28.8320371 C43.4785992,28.704272 43.8560335,29.0824878 43.91933,29.4575778 C43.9830171,29.8330586 43.7642146,30.1987713 43.3926411,30.3382579 C43.034352,30.4722745 42.8636078,30.8708076 42.7901527,31.2013557 C42.6659041,31.7628186 43.1453161,32.1089954 43.149614,32.5950496 C44.2526131,32.7204703 44.6745894,33.0244495 44.7203035,33.7113331 C44.7625011,34.3497676 44.3835039,34.7916705 43.5907355,35.0046123 C43.6673164,35.6137428 43.5426771,36.1419946 42.8737665,36.3561085 C42.2927677,36.5420906 41.9165055,36.227562 41.6406581,35.8294196 C41.3144079,35.8684915 41.0221503,35.9032654 40.6685498,35.9454631 C40.5235931,36.2510052 40.2688445,36.5674874 39.8245972,36.6491476 C38.9583737,36.8077794 38.3047012,36.0939362 38.4836504,35.2163818 C38.51061,35.0847096 38.4598165,34.8893502 38.3707327,34.7893262 C37.9487564,34.3169472 37.8842878,33.7867418 38.2261667,33.3061577 C38.5434304,32.8599569 39.1021582,32.6985901 39.598371,32.9095782 C40.1149013,33.1295529 40.3684777,33.6648376 40.252825,34.2591208 C40.2266468,34.3947003 40.2489178,34.5400476 40.2489178,34.7529894 C41.0467655,34.2528693 41.2155561,34.2528693 41.7664695,34.6873486" id="Fill-16"></path>
                <path d="M11.1492384,38.0164679 C11.1340004,37.9961506 11.1183716,37.9762239 11.1019614,37.9574694 C10.9597398,37.6237956 10.8171274,37.2901217 10.6522441,36.9029194 C10.4330509,36.8114912 10.218937,36.8400137 10.0024788,37.1326621 C9.71803551,37.5179108 9.28160264,37.5909752 8.82250808,37.4721967 C8.68380292,37.6445037 8.55252141,37.8074334 8.42163062,37.9695817 C8.78656195,38.5263559 8.80023711,38.8537783 8.47437765,39.1827635 C8.20282811,39.4574388 7.81523508,39.5000271 7.49367353,39.2909926 C7.12014638,39.0487469 7.05802209,38.6881135 7.29479767,38.0735129 C7.2037602,38.0098257 7.10881554,37.9437942 7.07951163,37.9234769 C6.73333479,38.0445997 6.44850081,38.2055758 6.15038238,38.2352705 C5.595171,38.2907525 5.09817672,37.856664 5.02120512,37.3284122 C4.93563771,36.7353011 5.2454777,36.2359625 5.79326542,36.0519339 C5.9448643,36.0011405 6.11638985,35.9288575 6.2152417,35.8124233 C6.57314009,35.3912285 6.94705796,35.3873213 7.29167192,35.835085 C7.33738602,35.8940836 7.36278274,35.9683201 7.4577274,36.0140342 C7.36668993,35.2525233 7.48742203,34.6351877 8.27589252,34.4003657 C8.84087186,34.2319659 9.26558317,34.4871052 9.61058785,35.0809978 C9.93957306,34.9469812 10.2474595,34.752794 10.5776168,34.702782 C11.0593731,34.6297176 11.4450125,34.8868106 11.6118494,35.3377 C11.7200785,35.6299577 11.8642537,35.6666852 12.1346311,35.6494936 C12.8805133,35.6014352 13.4970675,36.0788935 13.6447592,36.7829688 C13.7901066,37.477276 13.3888384,38.1985429 12.698829,38.4216433 C12.1088437,38.6119234 11.5751219,38.4978335 11.1492384,38.0164679" id="Fill-18"></path>
                <path d="M44.9973231,30.3867852 C44.4784485,29.7940648 44.4233572,29.2724553 44.816811,28.8106257 C45.1696301,28.3964638 45.7646948,28.3120685 46.2151935,28.612922 C46.7200022,28.9493308 46.809086,29.5100123 46.466035,30.1890815 C47.1107209,31.0310805 47.021637,31.5761332 46.1483806,32.1383775 C46.7872058,32.1731514 47.191209,32.5029181 47.2607569,33.0475801 C47.3193648,33.5023767 47.0208556,33.9606898 46.5594167,34.1251824 C46.0979779,34.2892843 45.5755869,34.0853291 45.3372484,33.6473334 C45.0770297,33.1694843 45.2282379,32.6775694 45.7814957,32.2020646 C44.7503888,31.809783 44.5210369,31.292862 44.9973231,30.3867852" id="Fill-20"></path>
                <path d="M45.8638592,36.8298159 C45.9595853,37.1935751 46.0818803,37.4979451 46.1068863,37.8101294 C46.1236872,38.0211175 46.0666422,38.3125937 45.9259835,38.4411402 C45.7872783,38.5681238 45.5008814,38.5728124 45.2824696,38.562263 C45.0699186,38.5521043 44.8647913,38.4368423 44.6510681,38.3989425 C44.1282864,38.3059515 43.7180317,37.8210695 43.7434284,37.3021949 C43.770388,36.7536258 44.235734,36.2558501 44.7745352,36.212871 C44.9691132,36.1972423 45.1660354,36.2105267 45.3613948,36.2105267 C45.3121643,35.2630337 45.7466435,34.6921935 46.5230017,34.6992265 C47.1344766,34.7050873 47.6138886,35.2204453 47.5560622,35.8108214 C47.4806535,36.5797559 46.8562849,36.9861035 45.8638592,36.8298159" id="Fill-22"></path>
                <path d="M28.9427668,42.8701328 C29.0638896,42.9080326 29.177198,42.9369458 29.2854271,42.9787527 C29.7101384,43.1432453 29.909405,43.566003 29.7574154,43.9723505 C29.5960485,44.4040948 29.1455498,44.6236787 28.7247457,44.4271472 C28.5094596,44.3267324 28.3602051,44.3298582 28.1460912,44.4279286 C27.8389862,44.5685874 27.5209411,44.5072445 27.2583781,44.2743761 C26.9805771,44.0278326 26.9383794,43.7164297 27.0032388,43.3663457 C27.0290262,43.2272498 27.0509064,43.0549428 26.9930801,42.9385086 C26.7160605,42.3832973 26.7680261,41.8566083 27.169685,41.4830812 C27.5373513,41.1419837 28.0620866,41.0810316 28.4938309,41.3299194 C28.9669913,41.6026411 29.1482848,42.114092 28.9834015,42.7091567 C28.9693356,42.758778 28.9580048,42.8091807 28.9427668,42.8701328" id="Fill-24"></path>
                <path d="M40.9653788,40.5718078 C41.044304,40.8570325 41.1697247,41.1391315 41.1908236,41.4282634 C41.2248161,41.8936094 41.2373191,42.370677 41.1689433,42.8297716 C41.1072097,43.240417 40.6926571,43.5143109 40.2683365,43.5463498 C39.8780085,43.5756537 39.4736145,43.3466925 39.2946653,42.980589 C39.1008688,42.5844002 39.1262655,42.1788341 39.4321983,41.8740735 C39.7236746,41.5833787 39.7049201,41.4091181 39.4165696,41.1344428 C39.1071203,40.8406223 39.0899287,40.2369618 39.3114662,39.9169631 C39.5275337,39.6047788 39.9381792,39.4953776 40.3773471,39.6329106 C40.8153428,39.7700529 41.0630585,40.0986474 41.0622771,40.5413317 L40.9653788,40.5718078 Z" id="Fill-26"></path>
                <path d="M6.00995805,47.8128816 C5.54773774,48.3317562 5.09255037,48.4341245 4.71355316,48.1129537 C4.33103948,47.7886571 4.36581345,47.3123709 4.80966998,46.80092 C4.40879251,46.0065887 4.58696027,45.5689837 5.40903258,45.2919641 C5.50905658,45.2583623 5.57586949,45.1348952 5.67472134,45.0868367 C5.77357319,45.0391691 5.91579483,44.9848591 5.99745505,45.0231496 C6.10021409,45.0704266 6.21156894,45.2009266 6.229542,45.3103279 C6.27838185,45.6068834 6.28033544,45.9108626 6.30182498,46.2289077 C6.85977139,46.2394571 7.31886595,46.3922282 7.39779114,46.9380623 C7.43451871,47.195546 7.30831654,47.5464114 7.13327453,47.7495852 C6.82030879,48.1133444 6.39442533,48.0098039 6.00995805,47.8128816" id="Fill-28"></path>
                <path d="M15.0428682,49.4047481 C14.5142257,49.3996687 14.0899051,49.0476311 13.9707359,48.517035 C13.8683676,48.0606755 14.1113946,47.5410195 14.5720521,47.3343293 C14.7885103,47.2370403 14.8881436,47.1264669 14.9373741,46.890082 C15.0151272,46.5196806 15.2831602,46.2930637 15.6656739,46.2606341 C16.0298238,46.230158 16.3162207,46.3934785 16.4654753,46.7310595 C16.618637,47.0764549 16.5518241,47.3886392 16.2982476,47.6844133 C16.199005,47.8004568 16.1392251,47.9965976 16.148993,48.1513222 C16.1939257,48.8839199 15.7418641,49.411781 15.0428682,49.4047481" id="Fill-30"></path>
                <path d="M37.3726025,43.1954062 C37.3870591,43.3259063 37.4073764,43.4306189 37.4085486,43.5349408 C37.4124558,43.8713497 37.2499168,44.0909337 36.9185873,44.1565744 C36.5677218,44.2261224 36.3082845,44.0702256 36.2082605,43.7416311 C36.1430105,43.5275172 36.0691646,43.3966264 35.8523157,43.2891787 C35.4385445,43.0836607 35.4264323,42.5796334 35.7784699,42.2604162 C35.8886526,42.1611736 35.9961002,42.0388787 36.0539266,41.9048621 C36.2559282,41.4352181 36.6423491,41.1456955 37.0756562,41.1710923 C37.4988046,41.1960983 37.9082779,41.5172691 38.0168977,41.9087693 C38.1481792,42.3819297 37.9727465,42.8089854 37.5273271,43.0992894 C37.4831759,43.1278119 37.4382432,43.1547715 37.3726025,43.1954062" id="Fill-32"></path>
                <path d="M17.5817588,7.5337222 C17.3195865,7.77284209 17.0320175,7.93264607 16.7108466,7.65679862 C16.4736803,7.45323414 16.4092118,7.18285674 16.56589,6.90622785 C16.7620308,6.5596603 17.0664007,6.50808542 17.4352393,6.70461696 C17.6790478,5.84464494 18.3874209,5.84542638 19.0426563,5.82042037 C19.2016788,5.81416887 19.4783077,6.04860014 19.5134724,6.21270202 C19.5853647,6.55184592 19.6006027,6.93592248 19.515426,7.26959631 C19.340384,7.95452632 18.4378236,8.21161928 17.8603413,7.78143791 C17.7661781,7.71110853 17.6833457,7.62475968 17.5817588,7.5337222" id="Fill-34"></path>
                <path d="M45.8701497,17.7170309 C45.3356465,17.7185885 44.9039022,17.3751467 44.7616806,16.8652587 C44.7233901,16.73007 44.6386042,16.5839412 44.5311565,16.4968109 C44.2771893,16.2905114 44.1931848,16.0482657 44.3432208,15.7657761 C44.4991176,15.4715648 44.762462,15.4524196 45.0640969,15.5383777 C45.1969413,15.5762775 45.3555731,15.5594766 45.494669,15.5305634 C45.9525914,15.4348373 46.3647997,15.4860214 46.6961292,15.8501713 C46.9958105,16.1795473 47.0731729,16.67029 46.8797671,17.0715582 C46.6773747,17.4911902 46.3405752,17.7115556 45.8701497,17.7170309" id="Fill-36"></path>
                <path d="M45.6122363,7.83344258 C44.9382464,7.83891264 44.4310934,7.3344947 44.4314839,6.66011409 C44.4318749,6.01464668 44.937465,5.49186496 45.575118,5.47701764 C46.219804,5.46217033 46.7781411,5.99823649 46.789472,6.64292247 C46.8008028,7.2950321 46.2733325,7.82836323 45.6122363,7.83344258" id="Fill-38"></path>
                <path d="M2.54349543,20.9068928 C2.54154749,20.2743191 3.04596543,19.7550538 3.66681756,19.7507559 C4.27477597,19.7460673 4.81318644,20.2805706 4.81748435,20.8928269 C4.82217298,21.5089904 4.2982191,22.0391958 3.68049272,22.0442751 C3.05495196,22.0497452 2.54545468,21.5398572 2.54349543,20.9068928" id="Fill-40"></path>
                <path d="M32.5439436,41.8347813 C31.9137142,41.8378929 31.3909325,41.3233163 31.3991376,40.7083249 C31.4073426,40.1144324 31.9285615,39.5936043 32.5244076,39.5850085 C33.1378361,39.5756312 33.6582735,40.1019294 33.6547748,40.7278609 C33.6512406,41.3471501 33.1651864,41.8316414 32.5439436,41.8347813" id="Fill-42"></path>
                <path d="M45.3706939,20.0958778 C44.7459346,20.0911892 44.2735556,19.6137309 44.2719907,18.9850643 C44.2708206,18.3528814 44.7846158,17.8363511 45.4019514,17.8496356 C46.0079563,17.86292 46.508467,18.3712452 46.5112165,18.9768593 C46.5143278,19.6074794 46.0118634,20.1009572 45.3706939,20.0958778" id="Fill-44"></path>
                <path d="M46.1599459,27.1921513 C45.523465,27.1882441 45.0612447,26.7221166 45.0659333,26.0883707 C45.0702312,25.4686908 45.5680069,24.9775573 46.1787004,24.9908417 C46.7600899,25.002954 47.2594285,25.5069812 47.2668522,26.0887615 C47.2746665,26.6986735 46.7757187,27.1960585 46.1599459,27.1921513" id="Fill-46"></path>
                <path d="M41.1240888,44.2040858 C41.1213538,44.0200573 41.0850169,43.8286051 41.1225259,43.6531723 C41.1994975,43.2921482 41.615613,43.0291945 41.9692135,43.0831137 C42.3708724,43.1440658 42.670163,43.4718788 42.6459384,43.8817428 C42.6322633,44.1099226 42.672898,44.2517535 42.8655224,44.4029617 C43.2242022,44.6846699 43.2245929,45.2058888 42.9100643,45.527841 C42.6138995,45.8306481 42.1172959,45.8368996 41.8023766,45.5387812 C41.7265771,45.4664982 41.6609364,45.3844472 41.5902163,45.3066942 L41.6015471,45.3238858 C41.6421819,44.8585398 41.5210591,44.4631324 41.1123672,44.1923643 L41.1240888,44.2040858 Z" id="Fill-48"></path>
                <path d="M10.3389658,47.1953115 C10.7820409,47.5618058 10.8765948,47.8278852 10.6808447,48.1467118 C10.5030677,48.4366251 10.2338624,48.5139874 9.92363173,48.4182613 C9.60285162,48.3194095 9.47821233,48.015821 9.54658812,47.5668851 C8.92378239,47.1824178 8.74483319,46.8229566 8.95855636,46.3833979 C9.13477053,46.0212016 9.55948184,45.8496761 9.92949252,45.9911163 C10.4006994,46.1720191 10.5382324,46.5623471 10.3389658,47.1953115" id="Fill-50"></path>
                <path d="M5.40539889,34.7997193 C5.06586428,35.4319023 4.62083559,35.6135865 4.17424403,35.3338319 C3.79876329,35.0990099 3.69131563,34.5785725 3.94489211,34.219502 C4.23636832,33.8065122 4.71343594,33.787367 5.24246916,34.1784765 C5.46556958,33.9131784 5.7550922,33.7463415 6.04344265,34.0233611 C6.16495619,34.1405768 6.22043826,34.4484632 6.15636038,34.6106115 C6.02742318,34.9380338 5.72344397,34.9528811 5.40539889,34.7997193" id="Fill-52"></path>
                <path d="M40.5910702,9.29519966 C40.5766136,9.70936156 40.4062603,9.93675988 40.1011089,10.0285788 C39.7815009,10.1250863 39.5029184,10.0285788 39.3001354,9.74804272 C39.1653374,9.56127914 39.0328838,9.37178054 38.8851921,9.19556637 C38.6308341,8.89119644 38.6523237,8.46062435 38.9469256,8.19884277 C39.239574,7.93901479 39.6877284,7.9601136 39.9393513,8.26135778 C40.1284592,8.48758395 40.3077991,8.72357809 40.4695567,8.96973092 C40.5449654,9.08499296 40.56919,9.23385681 40.5910702,9.29519966" id="Fill-54"></path>
                <path d="M16.0313086,7.65238349 C16.5130648,7.86845098 16.9233195,7.99973249 17.2722314,8.22517722 C17.5562839,8.40881504 17.5347944,8.81125538 17.3073961,9.07108337 C17.0807792,9.3297392 16.6849811,9.3590431 16.4122594,9.14922712 C16.2200257,9.00192614 15.9801244,8.90072998 15.8281348,8.72256222 C15.6909925,8.56158608 15.5429101,8.29902307 15.5851077,8.12632537 C15.631994,7.93448245 15.8883055,7.79343297 16.0313086,7.65238349" id="Fill-56"></path>
                <path d="M25.3717144,49.0991278 C25.3744494,49.5410308 25.0485899,49.8743139 24.6051241,49.8829097 C24.1280565,49.892287 23.7975084,49.5761955 23.7951553,49.1088958 C23.7932105,48.6611321 24.1147721,48.3274583 24.556675,48.3184717 C25.0157696,48.3087038 25.3689793,48.6470662 25.3717144,49.0991278" id="Fill-58"></path>
                <path d="M52.3301768,30.0475632 C51.8964789,30.0405302 51.5385805,29.6783339 51.5506928,29.2575298 C51.5628051,28.8332092 51.9332065,28.481953 52.3598714,28.4901581 C52.7877084,28.4983632 53.1463883,28.8664203 53.1374017,29.2880059 C53.1284152,29.7177965 52.7701261,30.0545961 52.3301768,30.0475632" id="Fill-60"></path>
                <path d="M41.0619254,37.6650555 C41.0689584,38.1046141 40.7341124,38.4629032 40.3047124,38.4754062 C39.8854712,38.4875185 39.5135069,38.1280572 39.5045204,37.701783 C39.4951431,37.2673038 39.8362406,36.9082332 40.2675942,36.8972931 C40.7016827,36.8867437 41.0552832,37.2282319 41.0619254,37.6650555" id="Fill-62"></path>
                <path d="M1.27386042,38.1418105 C1.28011192,37.7049869 1.63527529,37.360373 2.06662882,37.3713131 C2.49720091,37.3826439 2.84025199,37.7440588 2.83126546,38.1769752 C2.82227893,38.602468 2.44953322,38.9638828 2.03146413,38.9521613 C1.60206419,38.940049 1.2672182,38.5817599 1.27386042,38.1418105" id="Fill-64"></path>
                <path d="M12.526483,25.2902576 C12.0931759,25.2922031 11.7294167,24.9413376 11.7255095,24.5177985 C11.721993,24.1059809 12.0982552,23.7242487 12.5128078,23.7199507 C12.9277512,23.7156528 13.3067484,24.0876171 13.311437,24.504514 C13.3161256,24.9323511 12.9609623,25.2882959 12.526483,25.2902576" id="Fill-66"></path>
                <path d="M30.3055157,8.6267189 C29.8647849,8.6329704 29.507668,8.29656154 29.4982907,7.86638017 C29.4893042,7.4487018 29.8534541,7.07517465 30.2769932,7.06775099 C30.6997509,7.06032734 31.074841,7.4174443 31.0861718,7.8378577 C31.0971119,8.25866182 30.7388228,8.6204674 30.3055157,8.6267189" id="Fill-68"></path>
                <path d="M3.78926882,11.343621 C3.78926882,11.8023248 3.44817133,12.1340451 2.98360671,12.1281843 C2.53310796,12.1219328 2.22248654,11.8031063 2.22170472,11.3459653 C2.22131438,10.8841357 2.52529359,10.5719514 2.98087168,10.5664813 C3.45246924,10.5610113 3.78926882,10.8845264 3.78926882,11.343621" id="Fill-70"></path>
                <path d="M12.0405461,28.6186347 C11.6033317,28.6166729 11.2458241,28.2646353 11.2493405,27.8403147 C11.2524663,27.4222456 11.625212,27.0573142 12.047579,27.0584836 C12.4703367,27.0600493 12.8399567,27.4288878 12.8380108,27.8473476 C12.8360495,28.2751847 12.4789325,28.6205801 12.0405461,28.6186347" id="Fill-72"></path>
                <path d="M36.9372259,51.0118916 C36.9364431,51.4557481 36.6000342,51.7905941 36.1569591,51.788649 C35.7244335,51.7870777 35.3677072,51.4334772 35.369265,51.0075937 C35.370833,50.5813195 35.7291221,50.2300633 36.1616478,50.2304537 C36.6043321,50.2312355 36.938006,50.5676444 36.9372259,51.0118916" id="Fill-74"></path>
                <path d="M12.3448378,33.577004 C12.7883036,33.5691896 13.1426856,33.9016913 13.153235,34.3349984 C13.1637844,34.7515046 12.7992438,35.1293297 12.3776582,35.1383162 C11.9588077,35.146912 11.5798105,34.78706 11.5669168,34.3674281 C11.5536323,33.9462332 11.9091864,33.5848184 12.3448378,33.577004" id="Fill-76"></path>
                <path d="M3.17915315,40.383286 C3.17720786,39.9437274 3.52025895,39.588564 3.9500496,39.585814 C4.36694653,39.5830939 4.73812937,39.9546675 4.74009074,40.3758623 C4.74203656,40.7970572 4.37593306,41.1705843 3.95747326,41.1744915 C3.53315267,41.1783987 3.18111505,40.820891 3.17915315,40.383286" id="Fill-78"></path>
                <path d="M26.655499,0.88923686 C26.647294,0.457101895 26.9930801,0.08865409 27.4181821,0.0773232456 C27.8264832,0.0663831199 28.2160298,0.440300987 28.2273607,0.853681451 C28.2386915,1.26432688 27.8682901,1.65270135 27.4533468,1.66520435 C27.0305891,1.67770735 26.6640949,1.32098111 26.655499,0.88923686" id="Fill-80"></path>
                <path d="M25.7088265,13.0751694 C25.7142966,12.62975 26.0503147,12.3070163 26.500032,12.3148306 C26.934902,12.322645 27.2861582,12.6805434 27.2748274,13.1052547 C27.2638873,13.5284032 26.8930951,13.8827851 26.4699467,13.8749707 C26.0370303,13.867547 25.7033565,13.5166816 25.7088265,13.0751694" id="Fill-82"></path>
                <path d="M42.6860262,16.4269895 C42.6832911,15.9807886 43.0154021,15.6420354 43.4565236,15.6412527 C43.8941286,15.6404726 44.242259,15.9839144 44.2442206,16.4180029 C44.2461662,16.8442771 43.8890493,17.2088177 43.4647287,17.2138971 C43.0388452,17.2185857 42.6887612,16.8649852 42.6860262,16.4269895" id="Fill-84"></path>
                <path d="M47.9036847,9.26163691 C47.4598282,9.26163691 47.1206843,8.92522805 47.1218534,8.48566943 C47.1226379,8.05119015 47.4723312,7.70305972 47.906029,7.70383984 C48.3326939,7.70501331 48.6972345,8.06642818 48.6968441,8.48840446 C48.6964531,8.91467864 48.340899,9.26124619 47.9036847,9.26163691" id="Fill-86"></path>
                <path d="M6.63897621,6.24673363 C6.19511968,6.24243572 5.86418088,5.90251039 5.87238597,5.45865386 C5.88020035,5.02573746 6.24005234,4.67330912 6.66437293,4.68229566 C7.0820513,4.69128219 7.44854551,5.06871652 7.44229401,5.48405058 C7.43565179,5.91149692 7.07814411,6.25064082 6.63897621,6.24673363" id="Fill-88"></path>
                <path d="M34.4122435,5.92849319 C33.9758107,5.92614888 33.6198659,5.57567413 33.6221987,5.15096283 C33.6241638,4.73680092 34.0008167,4.36405521 34.4173229,4.36444562 C34.8396899,4.36483665 35.2014955,4.73054942 35.2007153,5.15604217 C35.1995419,5.59560079 34.8572722,5.93122822 34.4122435,5.92849319" id="Fill-90"></path>
                <path d="M45.5422195,3.56147978 C45.5461267,3.12739122 45.90129,2.76988354 46.323657,2.77496288 C46.7389911,2.78004223 47.108611,3.15708585 47.1062778,3.57320134 C47.1047039,3.99791265 46.7421168,4.35190386 46.3115447,4.34995831 C45.8700325,4.34799667 45.5383123,4.00807134 45.5422195,3.56147978" id="Fill-92"></path>
                <path d="M43.6076927,5.13810818 C43.1642269,5.13302883 42.8387581,4.79583853 42.8446189,4.3476841 C42.850089,3.91398626 43.2079874,3.56038576 43.632308,3.56976302 C44.0566286,3.57874955 44.4090569,3.9460252 44.4035868,4.3726901 C44.3973353,4.80716938 44.0480327,5.14318752 43.6076927,5.13810818" id="Fill-94"></path>
                <path d="M21.3903291,6.72235559 C20.9464726,6.71571338 20.6198317,6.3769602 20.6272554,5.93115008 C20.6342883,5.49862439 20.9929681,5.15010324 21.4211959,5.15908978 C21.8494237,5.16846703 22.1924748,5.52831902 22.1854418,5.96201686 C22.1784089,6.40235692 21.8369207,6.72899781 21.3903291,6.72235559" id="Fill-96"></path>
                <path d="M20.7533012,47.9855403 C20.7575991,48.436039 20.4333026,48.7661964 19.9847574,48.7685531 C19.539338,48.770885 19.1990219,48.4403369 19.1955055,48.0015597 C19.191989,47.5686433 19.539338,47.2126985 19.9691287,47.2080099 C20.4008729,47.2033213 20.749394,47.548326 20.7533012,47.9855403" id="Fill-98"></path>
                <path d="M0.775733056,49.2456505 C0.329532215,49.2444752 -0.00179730636,48.9115828 0.000147693519,48.4661634 C0.00171916261,48.0309027 0.349849591,47.683163 0.782765994,47.6851084 C1.21451024,47.6870702 1.55990564,48.0379357 1.55873646,48.4731964 C1.55717061,48.9166622 1.22232462,49.2468195 0.775733056,49.2456505" id="Fill-100"></path>
                <path d="M39.805999,30.0805734 C40.2482927,30.079016 40.5847015,30.4130806 40.5862675,30.855765 C40.5874366,31.29884 40.2529813,31.6375932 39.8126412,31.6391591 C39.3762083,31.6403283 39.0288594,31.2968864 39.0268975,30.8624072 C39.0249522,30.4271465 39.3687847,30.0821418 39.805999,30.0805734" id="Fill-102"></path>
                <path d="M46.3074422,48.1751561 C46.313303,48.6686339 46.1570155,48.9061909 45.8057593,48.9237733 C45.4982636,48.939402 45.2978249,48.7924918 45.236482,48.4896847 C45.1653712,48.1380378 45.3556513,47.9309569 45.8346725,47.8149134 C45.8901545,47.2815823 46.0468328,47.0635612 46.3848045,47.0510582 C46.6547912,47.0412902 46.9193078,47.2843173 46.9443138,47.5652441 C46.9712734,47.8707862 46.763411,48.069662 46.3074422,48.1751561" id="Fill-104"></path>
                <path d="M47.355389,50.5191185 C46.9396643,50.5198985 46.6016925,50.203807 46.6036377,49.8158233 C46.6059904,49.4360446 46.9564652,49.1109666 47.3608591,49.1140924 C47.7715045,49.1179996 48.0621993,49.3997078 48.0707951,49.8025389 C48.0793909,50.228813 47.7906497,50.5183357 47.355389,50.5191185" id="Fill-106"></path>
                <path d="M21.3289081,13.1079472 C21.7297856,13.1091228 22.027904,13.4080227 22.0263473,13.8069466 C22.0247783,14.1957117 21.7086868,14.5129754 21.3238288,14.5114183 C20.9381894,14.5102404 20.6263958,14.1921953 20.6275646,13.8014765 C20.6287401,13.4009898 20.9260771,13.1067785 21.3289081,13.1079472" id="Fill-108"></path>
                <path d="M38.9976804,6.18875096 C38.9968986,6.5931449 38.7038595,6.88344895 38.297512,6.88110463 C37.9021046,6.87954176 37.5918738,6.57048321 37.595781,6.18132731 C37.5992975,5.80193938 37.9275013,5.47686136 38.305717,5.47725172 C38.6925286,5.47803351 38.9980707,5.79217141 38.9976804,6.18875096" id="Fill-110"></path>
                <path d="M46.7288715,51.6632198 C47.1180274,51.669862 47.4329467,51.9914236 47.4243509,52.3735465 C47.4161458,52.7513716 47.0805184,53.0694167 46.700349,53.0604301 C46.3014251,53.0510529 46.0115118,52.746683 46.018154,52.3446334 C46.025187,51.942193 46.3229147,51.6565776 46.7288715,51.6632198" id="Fill-112"></path>
                <path d="M19.8543355,9.29062825 C19.8543355,9.6246928 19.5573892,9.9181226 19.2127752,9.92320194 C18.8595655,9.92867201 18.5696521,9.65673174 18.5598842,9.31094562 C18.5501162,8.94796788 18.843546,8.65453808 19.2123845,8.65883599 C19.5573892,8.66313389 19.8539448,8.95500082 19.8543355,9.29062825" id="Fill-114"></path>
                <path d="M6.15878283,38.7967724 C6.49323811,38.7870044 6.80229666,39.0847321 6.80620384,39.4207503 C6.80972031,39.7524705 6.50378751,40.0627012 6.17323943,40.0623109 C5.85128716,40.0619198 5.57036036,39.7849002 5.55785736,39.4551335 C5.5441822,39.1007516 5.81221528,38.8069311 6.15878283,38.7967724" id="Fill-116"></path>
                <path d="M7.44577141,39.5873493 C7.7786638,39.5885249 8.08420588,39.9007092 8.07717295,40.231648 C8.07014001,40.563759 7.75287636,40.866566 7.42428187,40.8548445 C7.1023296,40.8435136 6.82609143,40.5571168 6.82101209,40.2300852 C6.81554202,39.8858619 7.10740895,39.5861806 7.44577141,39.5873493" id="Fill-118"></path>
                <path d="M7.11573126,33.5773947 C7.46776887,33.5723154 7.75963618,33.8501164 7.75963618,34.1912139 C7.76002652,34.5260599 7.4580009,34.8226155 7.12002916,34.8198804 C6.79065324,34.8171454 6.51793153,34.5483309 6.50542853,34.214657 C6.49175337,33.8555865 6.75353495,33.5828648 7.11573126,33.5773947" id="Fill-120"></path>
                <path d="M44.9004248,8.02231603 C45.2458202,8.02973969 45.526747,8.32316949 45.5158069,8.66543913 C45.5048668,9.01200669 45.2153442,9.27496042 44.8597901,9.26128527 C44.5198647,9.24839155 44.272149,8.98856356 44.2729286,8.64473104 C44.2733212,8.28956767 44.5503408,8.01489237 44.9004248,8.02231603" id="Fill-122"></path>
                <path d="M17.9698207,44.6386823 C17.9616156,44.9723561 17.7138999,45.2032709 17.3751467,45.1923308 C17.0481151,45.1825628 16.7976644,44.9188277 16.8109488,44.5984383 C16.8238425,44.2878169 17.1090672,44.0190023 17.415,44.0299425 C17.7267936,44.0412733 17.9780258,44.3163393 17.9698207,44.6386823" id="Fill-124"></path>
                <path d="M14.77042,45.2069828 C14.7891745,45.1710366 14.807929,45.1350905 14.8262928,45.0991444 C15.0325923,45.0116234 15.2447526,44.8416607 15.4444099,44.8549452 C15.7440912,44.8748718 15.9183518,45.116336 15.9042859,45.4398512 C15.8913922,45.7422675 15.7315882,45.9329383 15.430344,45.9778709 C15.095498,46.0274922 14.8680997,45.8715954 14.7700293,45.5551132 C14.7372089,45.4492284 14.7684664,45.323417 14.77042,45.2069828" id="Fill-126"></path>
                <path d="M41.3730548,49.6380853 C41.0475861,49.6474626 40.7869766,49.4040448 40.7779901,49.0813111 C40.7690036,48.7640474 41.0225801,48.4917164 41.3367179,48.4815578 C41.6477301,48.4717898 41.9247497,48.7323992 41.9349084,49.0441928 C41.9454578,49.3610657 41.6918813,49.6287081 41.3730548,49.6380853" id="Fill-128"></path>
                <path d="M34.727788,50.4454666 C34.7320859,50.7252212 34.4890588,50.9803606 34.2061784,50.9920822 C33.9029807,51.0053666 33.6290868,50.7564787 33.6240075,50.4638304 C33.6189281,50.1770428 33.8951663,49.9078376 34.1885961,49.9136983 C34.4734301,49.9191684 34.7234901,50.165712 34.727788,50.4454666" id="Fill-130"></path>
                <path d="M49.6653575,50.233697 C49.9392514,50.2235383 50.1830599,50.4497645 50.1897021,50.7205326 C50.1959536,50.9862214 49.9556615,51.2351092 49.6848934,51.2272949 C49.3879472,51.2186991 49.2195474,51.0495178 49.189462,50.7615581 C49.1609396,50.4861014 49.3899008,50.2438557 49.6653575,50.233697" id="Fill-132"></path>
                <path d="M22.0347807,45.4876361 C21.8105081,45.5032648 21.6592999,45.5134235 21.507701,45.5239729 C21.5006681,45.4133995 21.4936352,45.3024354 21.4819136,45.1219233 C21.6932925,45.2618006 21.8261368,45.3497123 22.0347807,45.4876361" id="Fill-134"></path>
            </g>
        </g>
    </g>
</svg>